<?xml version="1.0" encoding="utf-8"?>
<!-- Generator: Adobe Illustrator 16.0.0, SVG Export Plug-In . SVG Version: 6.00 Build 0)  -->
<!DOCTYPE svg PUBLIC "-//W3C//DTD SVG 1.1//EN" "http://www.w3.org/Graphics/SVG/1.1/DTD/svg11.dtd">
<svg version="1.1" id="Layer_1" xmlns="http://www.w3.org/2000/svg" xmlns:xlink="http://www.w3.org/1999/xlink" x="0px" y="0px"
	 width="600px" height="102.088px" viewBox="0 0 600 102.088" enable-background="new 0 0 600 102.088" xml:space="preserve">
<g>
	<path fill="#FFFFFF" d="M154.17,34.207c0-8.518-3.876-13.646-12.39-13.646c-8.422,0-13.066,5.518-13.066,12.387
		c0,20.518,33.486,9.389,33.486,33.582c0,13.453-8.323,20.227-20.903,20.227c-13.067,0-20.131-6.871-20.131-20.518v-2.029h6.192
		v2.611c0,8.902,4.551,14.709,13.743,14.709c8.806,0,14.903-4.354,14.903-14.033c0-20.613-33.485-8.805-33.485-33.869
		c0-10.84,7.066-18.297,19.069-18.297c12.871,0,18.769,6.486,18.769,18.877H154.17z"/>
	<path fill="#FFFFFF" d="M182.992,16.494h7.739l20.426,69.102h-6.583l-5.61-20.131h-24.2l-5.614,20.131h-6.577L182.992,16.494z
		 M197.605,60.238L186.96,21.334h-0.198l-10.647,38.904H197.605z"/>
	<path fill="#FFFFFF" d="M214.85,16.494h6.199v63.875h28.636v5.227H214.85V16.494z"/>
	<path fill="#FFFFFF" d="M272.275,15.33c14.032,0,22.071,10.939,22.071,35.717c0,24.773-8.039,35.709-22.071,35.709
		c-14.222,0-22.059-10.936-22.059-35.709C250.216,26.27,258.053,15.33,272.275,15.33z M272.275,81.529
		c9.78,0,15.875-8.031,15.875-30.482c0-22.455-6.095-30.486-15.875-30.486c-9.767,0-15.865,8.031-15.865,30.486
		C256.41,73.498,262.508,81.529,272.275,81.529z"/>
	<path fill="#FFFFFF" d="M301.389,16.494h8.313l26.422,60.197h0.195V16.494h6.201v69.102h-8.326l-26.428-60.199h-0.192v60.199
		h-6.185V16.494z"/>
	<path fill="#FFFFFF" d="M391.295,55.594v-5.227h22.16v35.229h-4.838V74.174h-0.197c-2.225,7.742-8.222,12.582-15.195,12.582
		c-14.23,0-22.059-10.936-22.059-35.709c0-24.777,7.828-35.717,22.059-35.717c13.157,0,19.072,8.617,19.844,20.521h-6.202
		c0-8.324-4.636-15.291-13.642-15.291c-9.779,0-15.876,8.031-15.876,30.486c0,22.451,6.097,30.482,15.876,30.482
		c9.299,0,14.429-8.225,14.429-24.484v-1.451H391.295z"/>
	<path fill="#FFFFFF" d="M421.186,16.494h20.612c11.6,0,17.894,6.484,17.894,17.322c0,8.322-3.29,15.775-12.479,17.52v0.193
		c8.615,0.773,11.514,5.615,11.8,16.354l0.196,7.549c0.102,3.775,0.482,7.455,2.91,10.164h-7.258c-1.464-2.42-1.75-5.904-1.84-9.68
		l-0.193-5.807c-0.481-12.191-2.521-16.063-13.75-16.063h-11.709v31.549h-6.184V16.494z M427.369,48.816h10.649
		c9.771,0,15.489-4.352,15.489-13.547c0-8.518-3.59-13.549-14.811-13.549h-11.328V48.816z"/>
	<path fill="#FFFFFF" d="M466.117,16.494h6.204v49.646c0,10.26,4.54,15.389,13.546,15.389c8.998,0,13.55-5.129,13.55-15.389V16.494
		h6.196v49.744c0,14.611-6.975,20.518-19.746,20.518c-12.774,0-19.75-5.906-19.75-20.518V16.494z"/>
	<path fill="#FFFFFF" d="M513.441,16.494h19.07c13.447,0,18.571,6.971,18.571,17.322c0,6.873-3.675,13.164-10.642,15v0.195
		c8.513,1.645,12.871,8.225,12.871,17.227c0,12.1-7.742,19.357-20.902,19.357h-18.969V16.494z M519.638,46.883h9.772
		c10.74,0,15.484-4.449,15.484-12.582c0-9.291-4.744-12.58-14.424-12.58h-10.833V46.883z M519.638,80.369h11.513
		c10.645,0,15.967-4.742,15.967-14.131c0-9.387-5.322-14.127-15.967-14.127h-11.513V80.369z"/>
	<path fill="#FFFFFF" d="M559.065,16.494h20.615c11.608,0,17.901,6.484,17.901,17.322c0,8.322-3.287,15.775-12.487,17.52v0.193
		c8.614,0.773,11.522,5.615,11.808,16.354l0.197,7.549c0.093,3.775,0.482,7.455,2.9,10.164h-7.259
		c-1.452-2.42-1.739-5.904-1.837-9.68l-0.195-5.807c-0.482-12.191-2.512-16.063-13.74-16.063H565.26v31.549h-6.194V16.494z
		 M565.26,48.816h10.642c9.774,0,15.487-4.352,15.487-13.547c0-8.518-3.582-13.549-14.809-13.549h-11.32V48.816z"/>
	<g>
		<g>
			<path fill="#FFFFFF" d="M51.044,102.088C22.901,102.088,0,79.191,0,51.043C0,22.9,22.901,0,51.044,0s51.046,22.9,51.046,51.043
				C102.09,79.191,79.188,102.088,51.044,102.088z M51.044,3.922c-25.981,0-47.122,21.141-47.122,47.121
				c0,25.986,21.141,47.123,47.122,47.123c25.981,0,47.122-21.137,47.122-47.123C98.167,25.063,77.025,3.922,51.044,3.922z"/>
		</g>
		<g>
			<path fill="#FFFFFF" d="M51.044,95.912c-24.743,0-44.869-20.127-44.869-44.869c0-24.74,20.126-44.865,44.869-44.865
				s44.869,20.125,44.869,44.865C95.913,75.785,75.787,95.912,51.044,95.912z M51.044,6.963c-24.307,0-44.083,19.775-44.083,44.08
				c0,24.307,19.776,44.082,44.083,44.082c24.305,0,44.083-19.775,44.083-44.082C95.128,26.738,75.35,6.963,51.044,6.963z"/>
		</g>
		<g>
			<path fill="#FFFFFF" d="M41.036,47.789c0.682,0.111,1.43,0.23,2.196,0.369c1.032-9.723,7.373-15.738,18.175-15.738
				c7.82,0,14.252,3.336,16.075,10.676h4.854c-1.157-8.006-8.862-14.801-20.929-14.801c-12.933,0-21.404,7.871-22.924,19.049
				C39.293,47.492,40.134,47.637,41.036,47.789z"/>
			<path fill="#FFFFFF" d="M83.122,50.377H63.107v4.127H79c-1.274,7.764-5.526,15.162-18.447,15.162
				c-10.297,0-16.08-5.523-17.243-14.938c-1.461-0.344-3.128-0.645-4.961-0.939c1.023,12.061,8.898,20.002,22.572,20.002
				c8.434,0,13.587-2.908,18.013-9.277h0.129l0.665,8.186h3.456L83.122,50.377z"/>
			<path fill="#FFFFFF" d="M50.872,41.762h4.489c-0.083-2.77-0.785-5.018-1.948-6.834c-1.447,0.615-2.75,1.414-3.888,2.391
				C50.238,38.518,50.71,39.977,50.872,41.762z"/>
			<g>
				<path fill="#FFFFFF" d="M36.008,52.379c7.887,1.271,15.777,2.063,15.777,8.676c0,1.973-0.579,3.51-1.545,4.721
					c1.214,0.867,2.603,1.541,4.151,2.018c1.406-1.916,2.245-4.379,2.245-7.527c0-8.252-7.882-10.193-15.768-11.467
					c-10.498-1.762-15.841-3.094-15.841-8.736c0-4.852,5.281-7.643,12.258-7.643c2.592,0,5.047,0.273,7.136,0.988
					c1.192-1.102,2.51-2.068,3.947-2.889c-3.201-1.598-7.149-2.225-11.083-2.225c-8.43,0-17.105,3.094-17.105,12.557
					C20.18,47.828,25.64,50.742,36.008,52.379z"/>
				<path fill="#FFFFFF" d="M44.254,69.09c-1.798,0.406-3.758,0.576-5.691,0.576c-8.318,0-14.379-2.244-15.165-11.283h-4.491
					c0.663,11.648,8.673,15.408,19.656,15.408c3.38,0,6.966-0.459,10.036-1.699C46.993,71.266,45.544,70.264,44.254,69.09z"/>
			</g>
		</g>
	</g>
</g>
</svg>
